# xmcd CD database file
# Copyright (C) 1996 Ti Kan
#
# Track frame offsets:
# 	150
# 	13385
# 	24555
# 	39633
# 	50870
# 	63643
# 	77170
# 	91093
# 	102868
# 	114808
# 	125835
# 	140883
#
# Disc length: 2085 seconds
#
# Revision: 1
# Processed by: cddbd v1.4b41PL1 Copyright (c) Steve Scherf et al.
# Submitted via: DiscPlay 3.3.1
#
DISCID=ab08230c
DTITLE=Elmore James - Red Hot Blues
DYEAR=1900
DGENRE=
TTITLE0=Dust My Broom
TTITLE1=Look On Yonder Wall
TTITLE2=It Hurts Me Too
TTITLE3=Coming Home
TTITLE4=The Sky Is Crying
TTITLE5=I Believe
TTITLE6=Hand In Hand
TTITLE7=Rollin' and Tumblin'
TTITLE8=Mean Mistreatin' Mama
TTITLE9=I Done Somebody Wrong
TTITLE10=Pickin' The Blues
TTITLE11=Standing At The Crossroads
EXTD=
EXTT0=
EXTT1=
EXTT2=
EXTT3=
EXTT4=
EXTT5=
EXTT6=
EXTT7=
EXTT8=
EXTT9=
EXTT10=
EXTT11=
PLAYORDER=
